<svg width="17" height="10" fill="none" xmlns="http://www.w3.org/2000/svg"><path d="M16.667 5c0 2.751-2.223 5-5 5-2.752 0-5-2.249-5-5s2.222-5 4.973-5a5.002 5.002 0 015.027 5z" fill="#FFB600"/><path d="M11.667 0c2.751 0 5 2.249 5 5s-2.223 5-5 5c-2.752 0-5-2.249-5-5" fill="#F7981D"/><path d="M11.667 0c2.751 0 5 2.249 5 5s-2.223 5-5 5" fill="#FF8500"/><path d="M4.947 0A5.002 5.002 0 000 5c0 2.751 2.222 5 5 5 1.296 0 2.46-.503 3.36-1.296.185-.159.344-.344.502-.53H7.831a6.102 6.102 0 01-.37-.502h1.772a3.39 3.39 0 00.29-.53H7.17a3.154 3.154 0 01-.211-.528H9.71a5.253 5.253 0 00.265-1.588c0-.37-.053-.714-.106-1.058h-3.07c.027-.185.08-.344.133-.529h2.752a3.154 3.154 0 00-.212-.529H7.143c.08-.185.185-.344.29-.53h1.773a2.516 2.516 0 00-.396-.528h-.98a4.51 4.51 0 01.503-.503C7.46.53 6.27.053 4.973.053c0-.053 0-.053-.026-.053z" fill="#FF5050"/><path d="M0 5c0 2.751 2.222 5 5 5 1.296 0 2.46-.503 3.36-1.296.185-.159.344-.344.502-.53H7.831a6.102 6.102 0 01-.37-.502h1.772a3.39 3.39 0 00.29-.53H7.17a3.153 3.153 0 01-.211-.528H9.71a5.253 5.253 0 00.265-1.587c0-.37-.053-.715-.106-1.059h-3.07c.027-.185.08-.344.133-.529h2.752a3.154 3.154 0 00-.212-.529H7.143c.08-.185.185-.344.29-.529h1.773a2.516 2.516 0 00-.396-.53h-.98a4.51 4.51 0 01.503-.502C7.46.53 6.27.053 4.973.053h-.026" fill="#E52836"/><path d="M5 10c1.296 0 2.46-.503 3.36-1.296.185-.159.344-.344.502-.53H7.831a6.102 6.102 0 01-.37-.502h1.772c.106-.159.211-.344.29-.53H7.17a3.153 3.153 0 01-.211-.528H9.71a5.253 5.253 0 00.265-1.587c0-.37-.053-.715-.106-1.059h-3.07c.027-.185.08-.344.133-.529h2.752a3.153 3.153 0 00-.212-.529H7.143c.08-.185.185-.344.29-.529h1.773a2.516 2.516 0 00-.396-.53h-.98a4.51 4.51 0 01.503-.502C7.46.53 6.27.053 4.973.053h-.026" fill="#CB2026"/><path d="M6.772 6.27l.08-.45c-.027 0-.08.026-.132.026-.186 0-.212-.106-.186-.159l.16-.925h.29l.08-.503h-.265l.053-.318h-.53S6.006 5.687 6.006 5.9c0 .318.185.45.424.45a.812.812 0 00.343-.08zm.186-.847c0 .741.502.926.926.926.397 0 .555-.08.555-.08l.106-.502s-.29.133-.555.133c-.583 0-.477-.424-.477-.424h1.085s.08-.344.08-.476c0-.344-.186-.767-.768-.767-.555-.053-.952.529-.952 1.19zm.926-.767c.29 0 .238.344.238.37H7.54c0-.026.053-.37.344-.37zM3.862 4.18c-.37 0-.634.106-.634.106l-.08.45s.238-.107.582-.107c.185 0 .344.027.344.186 0 .105-.026.132-.026.132H3.81c-.45 0-.953.185-.953.794 0 .476.318.582.503.582.37 0 .529-.239.555-.239l-.026.212h.476l.212-1.455c0-.635-.53-.661-.715-.661zm.106 1.19c0 .08-.053.503-.37.503-.159 0-.212-.132-.212-.212 0-.132.08-.317.476-.317.08.026.106.026.106.026zm1.112.953c.132 0 .793.026.793-.688 0-.662-.635-.53-.635-.794 0-.132.106-.185.291-.185.08 0 .37.026.37.026l.08-.476s-.185-.053-.503-.053c-.397 0-.794.16-.794.688 0 .609.662.556.662.794 0 .159-.185.185-.318.185a1.73 1.73 0 01-.476-.08l-.08.477c.027.053.16.106.61.106zm10.555-2.566l-.106.714s-.212-.264-.503-.264c-.476 0-.899.582-.899 1.27 0 .423.212.872.661.872.318 0 .503-.211.503-.211l-.027.185h.53l.396-2.54-.555-.026zm-.238 1.402c0 .291-.133.661-.424.661-.185 0-.29-.158-.29-.423 0-.423.185-.688.423-.688.185 0 .29.132.29.45zM.979 6.297l.317-1.905.053 1.905h.37l.688-1.905-.29 1.905h.555l.423-2.54h-.873l-.529 1.56-.026-1.56H.899l-.423 2.54H.98zm10.264-.027l.106-.582s-.264.132-.45.132c-.37 0-.528-.291-.528-.608 0-.635.317-.98.687-.98.265 0 .476.16.476.16l.08-.556s-.318-.132-.609-.132c-.608 0-1.217.529-1.217 1.534 0 .661.318 1.111.953 1.111.212 0 .502-.08.502-.08zm-2.063.026c.159-.873.185-1.587.555-1.455.053-.344.133-.476.186-.609h-.106c-.238 0-.423.318-.423.318l.052-.291h-.502l-.344 2.063h.582v-.026zm3.28-2.116c-.37 0-.635.106-.635.106l-.079.45s.238-.107.582-.107c.185 0 .344.027.344.186 0 .105-.026.132-.026.132h-.239c-.45 0-.952.185-.952.794 0 .476.318.582.503.582.37 0 .529-.239.555-.239l-.026.212h.476l.212-1.455c.026-.635-.53-.661-.715-.661zm.133 1.19c0 .08-.053.503-.37.503-.16 0-.212-.132-.212-.212 0-.132.079-.317.476-.317.08.026.08.026.106.026zm1.031.926c.159-.873.185-1.587.556-1.455.053-.344.132-.476.185-.609h-.106c-.238 0-.423.318-.423.318l.053-.291h-.503l-.344 2.063h.582v-.026z" fill="#fff"/><path d="M3.148 4.762s.238-.106.582-.106c.185 0 .344.026.344.185 0 .106-.026.132-.026.132H3.81c-.45 0-.953.185-.953.794 0 .476.318.582.503.582.37 0 .529-.238.555-.238l-.026.211h.476l.212-1.455c0-.608-.53-.635-.741-.635l-.688.53zm1.085.608c0 .08-.318.503-.635.503-.159 0-.212-.133-.212-.212 0-.132.08-.317.476-.317.08.026.37.026.37.026zm2.989.053c0 .741.238.926.662.926.396 0 .555-.08.555-.08l.106-.502s-.291.133-.556.133c-.582 0-.476-.424-.476-.424h1.085s.08-.344.08-.476c0-.344-.186-.767-.768-.767-.556-.053-.688.529-.688 1.19zm.662-.767c.29 0 .343.344.343.37H7.54c0-.026.053-.37.344-.37zm.74 1.64h.556c.159-.873.185-1.587.555-1.455.053-.344.133-.476.186-.609h-.106c-.238 0-.424.318-.424.318l.053-.291M5.952 5.9c0 .317.186.449.424.449a.986.986 0 00.396-.08l.08-.45c-.027 0-.08.027-.132.027-.186 0-.212-.106-.186-.159l.16-.925h.29l.08-.503h-.265l.053-.318M4.497 6.27s.159.053.609.053c.132 0 .793.026.793-.688 0-.662-.634-.53-.634-.794 0-.132.105-.185.29-.185.08 0 .37.026.37.026l.08-.476s-.185-.053-.502-.053c-.397 0-.53.16-.53.688 0 .609.397.556.397.794 0 .159-.185.185-.317.185M15.53 4.471s-.212-.265-.503-.265c-.477 0-.635.582-.635 1.27 0 .424-.053.873.396.873.318 0 .503-.211.503-.211l-.026.185h.529l.396-2.54-.66.688zm-.027.688c0 .29-.238.661-.53.661-.185 0-.29-.159-.29-.423 0-.423.185-.688.423-.688.185 0 .397.132.397.45zM.979 6.297l.317-1.905.053 1.905h.37l.688-1.905-.29 1.905h.555l.423-2.54h-.661l-.74 1.56-.027-1.56h-.291l-.9 2.54H.98zm10.264-.027l.106-.582s-.264.132-.45.132c-.37 0-.529-.291-.529-.608 0-.635.318-.98.688-.98.265 0 .476.16.476.16l.08-.556s-.318-.132-.609-.132c-.608 0-.952.529-.952 1.534 0 .661.053 1.111.688 1.111.211 0 .502-.08.502-.08zm.503-1.508s.238-.106.582-.106c.185 0 .344.026.344.185 0 .106-.026.132-.026.132h-.239c-.45 0-.952.185-.952.794 0 .476.318.582.503.582.37 0 .529-.238.555-.238l-.026.211h.476l.212-1.455c0-.608-.53-.635-.741-.635l-.688.53zm1.085.608c0 .08-.318.503-.635.503-.159 0-.212-.133-.212-.212 0-.132.08-.317.476-.317.106.026.37.026.37.026zm.238.926h.555c.16-.873.186-1.587.556-1.455.053-.344.132-.476.185-.609h-.106c-.238 0-.423.318-.423.318l.053-.291" fill="#DCE5E5"/></svg>