<svg width="18" height="10" fill="none" xmlns="http://www.w3.org/2000/svg"><path d="M9.241 8.704A4.95 4.95 0 0010.881 5c0-1.482-.634-2.778-1.64-3.704A4.99 4.99 0 005.908 0c-2.751 0-5 2.249-5 5s2.249 4.973 5 4.973c1.27.027 2.46-.476 3.333-1.27z" fill="#07A9E2"/><path d="M.908 5c0 2.751 2.249 4.973 5 4.973 1.296 0 2.46-.476 3.333-1.296a4.95 4.95 0 001.64-3.704c0-1.481-.634-2.75-1.64-3.677A4.99 4.99 0 005.908 0" fill="#009DDD"/><path d="M9.241 1.296A4.99 4.99 0 005.908 0H5.67C4.11 1.138 3.104 2.963 3.104 5a6.149 6.149 0 002.54 4.973h.238c1.296 0 2.46-.476 3.333-1.296a4.95 4.95 0 001.64-3.704 4.913 4.913 0 00-1.614-3.677z" fill="#0284CC"/><path d="M12.601 0a4.93 4.93 0 00-3.36 1.296 4.754 4.754 0 00-.502.53h1.005c.132.158.265.343.37.528H8.342c-.106.186-.212.344-.29.53h2.354c.079.185.158.343.211.529H7.866c-.053.185-.106.344-.159.529h3.069A4.6 4.6 0 0110.882 5c0 .555-.08 1.085-.265 1.587H7.866c.053.185.132.344.212.53h2.354c-.08.184-.185.37-.291.528H8.369c.105.186.238.37.37.53h1.005c-.159.185-.317.37-.502.529.899.793 2.063 1.296 3.36 1.296a4.968 4.968 0 004.973-4.974C17.575 2.25 15.353 0 12.6 0z" fill="#FF2957"/><path d="M12.601 0a4.93 4.93 0 00-3.36 1.296 4.754 4.754 0 00-.502.53h1.005c.132.158.265.343.37.528H8.342c-.106.186-.212.344-.29.53h2.354c.079.185.158.343.211.529H7.866c-.053.185-.106.344-.159.529h3.069A4.6 4.6 0 0110.882 5c0 .555-.08 1.085-.265 1.587H7.866c.053.185.132.344.212.53h2.354c-.08.184-.185.37-.291.528H8.369c.105.186.238.37.37.53h1.005c-.159.185-.317.37-.502.529.899.793 2.063 1.296 3.36 1.296a4.968 4.968 0 004.973-4.974" fill="#ED1C2E"/><path d="M15.855 6.085c0-.08.08-.159.159-.159.08 0 .159.08.159.159a.17.17 0 01-.16.158.17.17 0 01-.158-.158zm.159.132c.08 0 .106-.053.106-.132 0-.08-.053-.106-.106-.106-.08 0-.132.053-.132.106s.079.132.132.132zm0-.08h-.027v-.132h.08l.026.027c0 .026 0 .026-.026.026l.026.053h-.026l-.027-.053h-.026v.08zm0-.079h.026v-.026h-.026v.026zm-10.741.186h-.635l.37-1.931-.846 1.93h-.555L3.5 4.314l-.37 1.93h-.556l.476-2.539h.979l.053 1.587.688-1.587h1.005l-.503 2.54z" fill="#fff"/><path d="M9.241 8.704A4.95 4.95 0 0010.881 5c0-1.481-.634-2.778-1.64-3.704v7.408z" fill="#0466B5"/><path d="M9.242 1.296a4.754 4.754 0 00-.503.53h1.005c.132.158.265.344.37.529H8.342c-.106.185-.212.344-.29.529h2.354c.079.185.158.344.211.529H7.866c-.053.185-.106.344-.159.529h3.069A4.6 4.6 0 0110.882 5c0 .556-.08 1.085-.265 1.587H7.866c.053.186.132.344.212.53h2.354c-.08.185-.185.37-.291.529H8.369c.105.185.238.37.37.529h1.005c-.159.185-.317.37-.502.529.899.793 2.063 1.296 3.36 1.296h.237a6.149 6.149 0 002.54-4.973 6.149 6.149 0 00-2.54-4.974h-.238c-1.296-.053-2.46.45-3.36 1.243z" fill="#D1094B"/><path d="M12.204 6.217c-.185.053-.29.08-.45.08-.317 0-.476-.16-.476-.45 0-.054 0-.106.027-.186l.026-.211.027-.16.29-1.56h.61l-.08.476h.317l-.079.476h-.318l-.158.847c0 .026-.027.08-.027.08 0 .105.08.158.212.158.08 0 .132 0 .159-.026l-.08.476zm1.826-2.011c-.053-.026-.053-.026-.08-.026-.026 0-.052 0-.052-.027h-.08c-.211 0-.344.08-.529.344l.053-.317h-.556l-.37 2.063h.635c.212-1.27.317-1.481.608-1.481h.08l.08.026.21-.582zm-4.286.635c0 .265.159.45.476.556.265.106.291.132.291.238 0 .132-.106.185-.37.185-.185 0-.37-.026-.556-.08l-.079.477h.026l.106.026h.159c.159.027.264.027.344.027.661 0 .979-.212.979-.688 0-.291-.133-.45-.45-.582-.265-.106-.291-.132-.291-.212 0-.106.106-.159.317-.159.106 0 .291 0 .45.027l.08-.476c-.16-.027-.397-.027-.556-.027-.688 0-.926.318-.926.688zM9.32 6.19c-.21.053-.422.08-.634.08-.688 0-1.058-.318-1.058-.926 0-.714.45-1.217 1.084-1.217.503 0 .82.291.82.74 0 .16-.026.292-.079.503H8.21v.08c0 .238.185.37.529.37.238 0 .423-.026.635-.132l-.053.502zm-.317-1.217v-.105c0-.159-.105-.265-.29-.265-.186 0-.345.132-.397.37h.687zm-4.338.159l.37-.82-.29 1.534c.026.133.052.291.105.424h.423l.476-2.54h-.926a5.11 5.11 0 00-.185 1.296c.027.027.027.053.027.106zm2.619 1.111H6.78v-.211c-.159.158-.37.238-.661.238-.344 0-.556-.238-.556-.556 0-.502.397-.793 1.085-.793h.264c.027-.08.027-.106.027-.133 0-.132-.106-.185-.397-.185-.185 0-.37.027-.503.053l-.079.027h-.053l.08-.45a2.73 2.73 0 01.74-.106c.53 0 .82.212.82.608 0 .106 0 .186-.053.424l-.132.74-.026.133-.027.106v.079l-.026.026zm-.45-.926h-.132c-.344 0-.53.106-.53.318 0 .132.08.212.212.212.265 0 .45-.212.45-.53z" fill="#DCE5E5"/><path d="M15.96 5.317c-.105.688-.581.98-1.216.98-.688 0-.979-.424-.979-.953 0-.714.476-1.217 1.217-1.217.635 0 .979.423.979.926v.264zm-.66-.264c0-.212-.08-.397-.344-.397-.318 0-.503.37-.503.714 0 .265.132.45.344.45.132 0 .423-.185.476-.503.027-.105.027-.185.027-.264z" fill="#fff"/><path d="M13.792 5.582c.026-.185.053-.397.053-.582v-.053a2.053 2.053 0 00-.053.423c-.027.053-.027.132 0 .212z" fill="#fff"/></svg>