<svg width="11" height="10" fill="none" xmlns="http://www.w3.org/2000/svg"><path d="M10.586 4.016c-.06-.344-.35-.551-.77-.556-.13-.001-.258.011-.384-.002-.248-.026-.313.057-.311.253.012.965.008 1.928.004 2.89-.002.505-.495 1.023-1.087 1.154-1.837.404-3.672.813-5.512 1.213a2.9 2.9 0 01-.634.066c-.092 0-.22-.07-.259-.138-.025-.045.056-.154.119-.21a.996.996 0 01.3-.16c.337-.12.68-.23 1.02-.343 1.364-.454 2.731-.902 4.094-1.358.614-.208.946-.618.956-1.135.031-1.676.016-3.351.008-5.029 0-.265-.137-.487-.453-.602-.364-.13-.684-.026-1 .124-1.931.922-3.861 1.841-5.794 2.761-.569.271-.886.663-.883 1.222.006 1.585.002 3.167.004 4.75 0 .079.008.16.033.235.19.538.683.847 1.365.847C2.76 10 4.124 10 5.484 10c1.355 0 2.705.001 4.06-.002.294 0 .565-.06.786-.243.285-.23.27-.522.27-.813.003-1.543.003-3.085.002-4.63.002-.097 0-.198-.016-.296zm-5.65-.495c.137-.356.436-.578.891-.635.302-.038.564.148.607.42.066.419-.458.906-.975.904-.432 0-.673-.302-.523-.689z" fill="#343434"/></svg>