<svg width="22" height="8" fill="none" xmlns="http://www.w3.org/2000/svg"><path d="M9.04.77L8.004 7.217H9.66L10.695.771H9.04zm4.994 2.626c-.579-.286-.934-.478-.934-.77.008-.266.3-.538.955-.538.537-.014.933.112 1.233.238l.15.067.225-1.348a4.179 4.179 0 00-1.486-.266c-1.635 0-2.786.85-2.793 2.066-.014.897.824 1.395 1.45 1.693.641.307.86.505.86.778-.008.418-.519.61-.995.61-.66 0-1.015-.099-1.554-.332l-.218-.099-.232 1.402c.39.172 1.105.325 1.847.332 1.738 0 2.868-.837 2.883-2.133.005-.71-.437-1.255-1.391-1.7zM19.908.79h-1.281c-.395 0-.695.114-.866.519l-2.46 5.907h1.738l.479-1.279h1.944l.248 1.285h1.533L19.908.79zM18 4.647c.033.003.667-2.088.667-2.088l.504 2.088H18zM6.62.77L4.998 5.15l-.176-.864c-.3-.996-1.24-2.08-2.29-2.617L4.017 7.21H5.77L8.372.771H6.62z" fill="#2394BC"/><path d="M4.276 1.602c-.126-.492-.53-.823-1.077-.83H.63L.604.89c2.003.494 3.686 2.014 4.231 3.444l-.559-2.733z" fill="#EFC75E"/></svg>