<svg width="12" height="12" fill="none" xmlns="http://www.w3.org/2000/svg"><path fill-rule="evenodd" clip-rule="evenodd" d="M3.3 2C2.583 2 2 2.583 2 3.3 2 6.994 5.005 10 8.7 10a1.302 1.302 0 001.29-1.464l-2.31-.53-.143.272c-.228.435-.393.752-.814.582a5.936 5.936 0 01-3.59-3.603c-.179-.393.162-.57.592-.795l.269-.141-.53-2.31A1.302 1.302 0 003.3 2zm5.4 9C4.454 11 1 7.546 1 3.3a2.302 2.302 0 013.045-2.176.501.501 0 01.324.361l.684 2.982a.499.499 0 01-.126.458c-.068.071-.07.072-.69.397a4.974 4.974 0 002.44 2.441c.325-.62.327-.622.398-.69a.505.505 0 01.458-.127l2.982.685c.168.038.304.16.36.323A2.276 2.276 0 0111 8.7 2.301 2.301 0 018.701 11z" fill="#343434"/><mask id="a" maskUnits="userSpaceOnUse" x="1" y="1" width="10" height="10"><path fill-rule="evenodd" clip-rule="evenodd" d="M3.3 2C2.583 2 2 2.583 2 3.3 2 6.994 5.005 10 8.7 10a1.302 1.302 0 001.29-1.464l-2.31-.53-.143.272c-.228.435-.393.752-.814.582a5.936 5.936 0 01-3.59-3.603c-.179-.393.162-.57.592-.795l.269-.141-.53-2.31A1.302 1.302 0 003.3 2zm5.4 9C4.454 11 1 7.546 1 3.3a2.302 2.302 0 013.045-2.176.501.501 0 01.324.361l.684 2.982a.499.499 0 01-.126.458c-.068.071-.07.072-.69.397a4.974 4.974 0 002.44 2.441c.325-.62.327-.622.398-.69a.505.505 0 01.458-.127l2.982.685c.168.038.304.16.36.323A2.276 2.276 0 0111 8.7 2.301 2.301 0 018.701 11z" fill="#fff"/></mask><g mask="url(#a)"><path fill="#343434" d="M0 0h12v12H0z"/></g></svg>